<svg xmlns="http://www.w3.org/2000/svg" xmlns:xlink="http://www.w3.org/1999/xlink"
  viewBox="0 0 800 327" width="800" height="327">
  <defs>
    <g id="sketch-box">
      <path d="M3.9,293.806c0.75-18.186,3.495-36.11,6.8-53.941,3.606-19.443,6.557-38.884,6.868-58.758,0.2-12.8.843-25.607,0.04-38.366C16.6,126.66,14.46,110.67,12.52,94.664,9.358,68.575,6.568,42.43,8.062,16.058c0.12-2.113.378-4.218-.709-6.343C6.481,8.009,8.1,6.537,9.175,5.448s2.124,0.126,2.884.981c1.187,1.336,2.775.866,4.2,1.039C25.791,8.619,35.291,6.8,44.8,7.113c8.565,0.285,17.1-.452,25.654-0.54,13.723-.14,27.484.107,41.21-1.046,5.809-.488,11.709.165,17.568,0.208,12.3,0.091,24.591.128,36.886,0.177,9.063,0.036,18.129.219,27.188,0.045,16.679-.321,33.313,1.31,50,0.846,11.72-.326,23.456.208,35.192,0.019,6.494-.1,13,0.622,19.5.929,2.82,0.133,5.5-1,8.378-.817,13.464,0.836,26.963.415,40.437,0.562,11.815,0.129,23.665.356,35.455,0.081,7.365-.172,14.764.01,22.131-0.14,8.608-.175,17.309-0.292,25.9.808,4.609,0.59,9.085-.574,13.662-0.582,5.486-.009,10.976.374,16.475,0.276,13.69-.244,27.407.069,41.085-0.162,11.328-.191,22.66.189,34.007-0.292,13.533-.573,27.127.223,40.693,0.5,11.145,0.228,22.287-.065,33.442.379,13.042,0.519,26.129.491,39.178,0.1,29.284-.883,58.541,1.043,87.81.519,12.889-.231,25.8.343,38.668-0.835a4.729,4.729,0,0,1,1.967.1c0.921,0.333,1.984.833,1.778,2.061a1.8,1.8,0,0,1-2.287,1.393c-5.235-.722-10.482-0.164-15.721-0.178-16.4-.044-32.8.16-49.2-0.042q-61.779-.762-123.554-1.816c-26.881-.445-53.766-0.595-80.644-0.292-26.846.3-53.692,0.8-80.538,0.52-15.421-.163-30.842-0.066-46.267-0.542-15.576-.48-31.181.075-46.767-0.19-21.189-.361-42.372.251-63.567-0.021-20.034-.258-40.091.273-60.124-0.467-31.371-1.16-62.756-.857-94.127-0.744-29.727.106-59.459,1-89.169,2.291-4.138.18-8.266,0.62-12.4,0.718-2.18.051-2.807,0.91-2.913,2.994-0.331,6.479.245,13.082-.436,19.4-1.032,9.572-.032,18.9.552,28.324,0.865,13.954,2.435,27.83,4.332,41.687,1.8,13.169,2.447,26.471,3.7,39.7,2.075,21.984-.168,43.832-1.242,65.714-0.564,11.49-3.3,22.713-5.267,34.03a358.256,358.256,0,0,0-5.471,51.561c-0.094,3.485.126,7.005-.918,10.408-0.295.96-.641,2.11-1.852,1.943-1.236-.171-1.242-1.456-1.259-2.406C3.866,300.794,3.9,297.3,3.9,293.806Z"/>
      <path d="M712.066,318.942c-22.43-.449-44.869-0.66-67.286-1.455-10.276-.365-20.606-0.878-30.831-0.757-21.84.258-43.661-.633-65.5-0.341-15.006.2-30,.976-44.991,0.865-6.667-.05-13.375,1.217-20.04-0.135-1.5-.3-2.773.777-4.341,0.815-12.078.293-24.151,1.14-36.233,0.8-17.078-.487-34.118,1.117-51.212.556-6.178-.2-12.493,1.189-18.754,1.075-9.705-.177-19.37.769-29.1,0.428-7.9-.277-15.853,1.279-23.78,1.26-16.421-.039-32.784,1.575-49.194,1.43-13.343-.118-26.633,1.2-39.955,1.272-8.751.047-17.508,0.1-26.283-.283-9.327-.405-18.743-0.107-28.117,0-9.136.1-18.316,0.009-27.453-.028-10.627-.043-21.3.144-31.943,0.252-13.2.134-26.39-.238-39.595-0.956-9.418-.512-18.9-0.338-28.294-1.449C38.773,321.052,28.331,320,18.6,315.659a21.8,21.8,0,0,1-6.6-4.368,1.509,1.509,0,0,1-.2-2.215,1.464,1.464,0,0,1,2.187-.243c17.037,11.786,36.822,10.8,56.114,12.008,8.934,0.558,17.884,1.079,26.831,1.166,21.181,0.206,42.367-.082,63.545.267,13.773,0.227,27.534-.328,41.315.084,17.974,0.537,35.958-.287,53.938-0.816,13.737-.4,27.487-0.46,41.227-1.018,16.076-.653,32.157-1.277,48.242-1.587,10.018-.193,20.091-0.21,30.039-0.857,20.184-1.314,40.381-.5,60.554-1.507,13.878-.69,27.819-0.122,41.7-0.81,15.246-.755,30.506-0.838,45.753-1.4,14.889-.545,29.829-0.241,44.745-0.194q21.348,0.067,42.711.133c14.594,0.051,29.193.3,43.789,0.615,17.842,0.379,35.684.987,53.544,0.806,11.44-.116,22.892.564,34.334,1.023,11.935,0.479,23.875-.684,35.806.2,0.828,0.061,1.66.073,2.489,0.121,1.406,0.082,3.536-.615,3.613,1.494,0.085,2.331-2.055,1.44-3.4,1.424-19.119-.226-38.247.383-57.357-0.7-3.806-.216-7.636-0.031-11.454-0.031v-0.316Z"/>
      <path d="M787.262,105.549c0.376-27.573.8-55.128,4.494-82.535,0.591-4.389,2.286-9.131-.385-13.568a0.524,0.524,0,0,1,.1-0.468c1.266-1.407.555-4.709,3-4.546,2.382,0.159,1.788,2.906,1.629,4.558-1.165,12.086-2.706,24.138-3.694,36.237-1.461,17.893-2.73,35.785-2.731,53.784,0,18.469.115,36.934,1.4,55.337q1.2,17.119,2.557,34.25c1.646,20.9,2.212,41.807-1.079,62.67-1.476,9.355-1.586,18.851-1.446,28.339,0.093,6.3-.247,12.608-0.36,18.913-0.023,1.307-.3,2.394-1.833,2.424-1.612.032-1.866-1-1.627-2.364,1.883-10.734.63-21.574,0.994-32.36a188.781,188.781,0,0,1,1.973-21.189c2.434-16.532,2.34-33.147,1.229-49.794-1.838-27.544-4.183-55.066-4.219-82.7Q787.258,109.042,787.262,105.549Z"/>
    </g>
  </defs>
  <use xlink:href="#sketch-box" fill="#fff" opacity="0.5" x="0" y="0" />
</svg>
