<svg xmlns="http://www.w3.org/2000/svg" viewBox="0 0 100 6" preserveAspectRatio="none" class="arc-svg">
  <defs>
    <clipPath id="arcOutline">
      <path fill="none" d="M0.021,2.724C3.134,2.307,6.254,1.694,9.4,1.5,18.262,0.973,27.132.5,36.005,0.226c7.729-.236,15.467-0.257,23.2-0.2Q69.763,0.106,80.317.581c5.128,0.228,10.24.811,15.366,1.115a4.954,4.954,0,0,1,3.531,1.13,1.893,1.893,0,0,1,.464,2.546,2.361,2.361,0,0,1-1.894.559C87.546,4.605,77.27,4.119,66.949,3.816,56.265,3.5,45.6,3.23,34.925,3.8Q20.5,4.567,6.072,5.242A32.325,32.325,0,0,1,1.9,5.113C0.807,5.023-.156,4.658.021,2.724Z"/>
    </clipPath>
  </defs>
  <g clip-path="url(#arcOutline)">
    <rect class="arc-svg-fill" fill="currentColor" width="100" height="6"/>
  </g>
  <title>arc-svg</title>
</svg>
