<svg version="1.1" id="Layer_1" xmlns="http://www.w3.org/2000/svg" x="0" y="0"
	 viewBox="0 0 111.9 181">
<style type="text/css">
	.st0{fill:#FFFFFF;}
</style>
<path class="st0" d="M6.9,24.5c-12.3,71.2-5,116-1.3,130.9s8.7,24.8,21,24.8c18.7,0,32.3-33.6,40-51.5c4,17.1,13,37.3,20.3,46.7
	s25.3,8.3,25-13.6c-0.2-14.7-5.7-14.7-8.3-9.9c-2.3,4.3-4,0.3-6.3-5.6c-4.7-11.7-10.3-50.1-9.7-73.3s11.7-51.5,12-64
	c0.1-5.6-3-8.8-6-9.1c-4.8-0.4-19.1,9.6-20,19.2c-7,70.9-34.8,123.9-34.8,123.9c-3,8-10.8,10-12.5-2.8c-5.2-37.9-4.3-72.5,5.2-121.6
	C34.5,3.2,9,12.3,6.9,24.5z"/>
</svg>
